#N canvas 690 53 1920 976 10;
#N canvas 0 50 450 250 (subpatch) 0;
#X array array1 87529 float 2;
#X coords 0 1 87529 -1 200 140 1;
#X restore 580 481 graph;
#X obj 280 51 loadbang;
#X msg 280 79 1;
#X msg 280 149 \; pd dsp \$1;
#X obj 344 405 soundfiler;
#X floatatom 347 453 9 0 0 0 - - - 0;
#X obj 347 679 line~;
#X obj 392 489 / 44.1;
#X floatatom 392 514 5 0 0 0 - - - 0;
#X obj 347 589 pack 0 0;
#X obj 392 547 i;
#X msg 347 628 1 \, \$1 \$2;
#X obj 340 823 dac~;
#X obj 347 713 tabread4~ array1;
#X msg 343 364 read -resize Screams.wav array1;
#X obj 914 401 soundfiler;
#X floatatom 917 449 9 0 0 0 - - - 0;
#X obj 917 675 line~;
#X obj 962 485 / 44.1;
#X floatatom 962 510 5 0 0 0 - - - 0;
#X obj 917 585 pack 0 0;
#X obj 962 543 i;
#X msg 917 624 1 \, \$1 \$2;
#X obj 910 819 dac~;
#N canvas 0 50 450 250 (subpatch) 0;
#X array array2 64246 float 2;
#X coords 0 1 64246 -1 200 140 1;
#X restore 1062 445 graph;
#X msg 913 360 read -resize Roar.wav array2;
#X obj 917 709 tabread4~ array2;
#X obj 633 284 bng 19 250 50 0 empty empty empty 0 -10 0 12 #fcfcfc #000000 #000000;
#X obj 688 282 bng 19 250 50 0 empty empty empty 0 -10 0 12 #fcfcfc #000000 #000000;
#X obj 406 90 tgl 19 0 empty empty empty 0 -10 0 12 #fcfcfc #000000 #000000 0 1;
#X floatatom 633 183 3 0 0 0 - - - 0;
#X obj 633 231 sel 0 1 2 3;
#X obj 633 133 random 4;
#X obj 917 759 *~ 0.2;
#X obj 347 763 *~ 0.5;
#X obj 531 167 bng 19 250 50 0 empty empty empty 0 -10 0 12 #fcfcfc #000000 #000000;
#X obj 406 124 metro 2000;
#X connect 1 0 2 0;
#X connect 2 0 3 0;
#X connect 2 0 29 0;
#X connect 4 0 5 0;
#X connect 5 0 7 0;
#X connect 5 0 9 0;
#X connect 6 0 13 0;
#X connect 7 0 8 0;
#X connect 8 0 10 0;
#X connect 9 0 11 0;
#X connect 10 0 9 1;
#X connect 11 0 6 0;
#X connect 13 0 34 0;
#X connect 14 0 4 0;
#X connect 15 0 16 0;
#X connect 16 0 18 0;
#X connect 16 0 20 0;
#X connect 17 0 26 0;
#X connect 18 0 19 0;
#X connect 19 0 21 0;
#X connect 20 0 22 0;
#X connect 21 0 20 1;
#X connect 22 0 17 0;
#X connect 25 0 15 0;
#X connect 26 0 33 0;
#X connect 27 0 14 0;
#X connect 28 0 25 0;
#X connect 29 0 36 0;
#X connect 30 0 31 0;
#X connect 31 0 27 0;
#X connect 31 3 28 0;
#X connect 32 0 30 0;
#X connect 33 0 23 0;
#X connect 33 0 23 1;
#X connect 34 0 12 0;
#X connect 34 0 12 1;
#X connect 35 0 32 0;
#X connect 36 0 35 0;
